<svg width="19" height="19" viewBox="0 0 19 19" fill="none" xmlns="http://www.w3.org/2000/svg">
<g id="Icon_date">
<path id="Date" d="M6.57692 3.65392H5.99244C5.17391 3.65392 4.76433 3.65392 4.45169 3.81322C4.17668 3.95334 3.95326 4.17677 3.81314 4.45177C3.65384 4.76441 3.65384 5.17399 3.65384 5.99253V6.577M6.57692 3.65392H12.4231M6.57692 3.65392V2.19238M12.4231 3.65392H13.0078C13.8264 3.65392 14.2351 3.65392 14.5477 3.81322C14.8227 3.95334 15.0469 4.17677 15.187 4.45177C15.3461 4.76411 15.3461 5.17319 15.3461 5.99012V6.577M12.4231 3.65392V2.19238M3.65384 6.577V13.0079C3.65384 13.8264 3.65384 14.2355 3.81314 14.5481C3.95326 14.8232 4.17668 15.047 4.45169 15.1871C4.76403 15.3462 5.1731 15.3462 5.99004 15.3462H13.0099C13.8269 15.3462 14.2354 15.3462 14.5477 15.1871C14.8227 15.047 15.0469 14.8232 15.187 14.5481C15.3461 14.2358 15.3461 13.8273 15.3461 13.0104V6.577M3.65384 6.577H15.3461M12.4231 12.4232H12.4245L12.4245 12.4246L12.4231 12.4246V12.4232ZM9.49999 12.4232H9.50145L9.50142 12.4246L9.49999 12.4246V12.4232ZM6.57692 12.4232H6.57838L6.57834 12.4246L6.57692 12.4246V12.4232ZM12.4245 9.50007V9.50154L12.4231 9.5015V9.50007H12.4245ZM9.49999 9.50007H9.50145L9.50142 9.50154L9.49999 9.5015V9.50007ZM6.57692 9.50007H6.57838L6.57834 9.50154L6.57692 9.5015V9.50007Z" stroke="#3D3D3D" stroke-width="1.5" stroke-linecap="round" stroke-linejoin="round"/>
</g>
</svg>
